<svg width="49" height="49" viewBox="0 0 49 49" fill="none" xmlns="http://www.w3.org/2000/svg">
<g filter="url(#filter0_d_54_93)">
<circle cx="22.5" cy="22.5" r="22.5" fill="#5BCEFA"/>
<circle cx="22.5" cy="22.5" r="20.1804" fill="white"/>
</g>
<g clip-path="url(#clip0_54_93)">
<path d="M10 22V34H34V10H10V22ZM24.563 29.626C24.671 29.565 25.074 29.332 25.455 29.111L26.145 28.711L26.29 28.925C26.492 29.233 26.933 29.656 27.2 29.797C27.966 30.201 29.017 30.144 29.535 29.679C29.6335 29.5963 29.7126 29.493 29.7669 29.3763C29.8211 29.2597 29.8492 29.1326 29.849 29.004L29.848 28.957V28.959C29.848 28.681 29.813 28.559 29.668 28.349C29.482 28.083 29.101 27.859 28.019 27.389C26.781 26.856 26.248 26.525 25.76 25.999C25.46 25.658 25.2372 25.2561 25.107 24.821L25.101 24.799C25.01 24.46 24.987 23.61 25.059 23.268C25.314 22.071 26.217 21.238 27.52 20.99C27.943 20.91 28.926 20.94 29.341 21.043C29.951 21.195 30.415 21.467 30.842 21.909C31.063 22.145 31.391 22.575 31.417 22.679C31.425 22.709 30.381 23.409 29.749 23.802C29.726 23.817 29.634 23.718 29.532 23.566C29.222 23.116 28.899 22.922 28.404 22.888C27.676 22.838 27.208 23.219 27.212 23.855L27.211 23.892C27.211 24.043 27.249 24.185 27.316 24.309L27.314 24.304C27.474 24.635 27.772 24.834 28.704 25.237C30.423 25.977 31.158 26.464 31.615 27.157C32.125 27.93 32.24 29.165 31.893 30.083C31.513 31.081 30.568 31.759 29.238 31.983C28.827 32.056 27.852 32.045 27.41 31.965C26.446 31.793 25.532 31.317 24.968 30.692C24.747 30.449 24.316 29.812 24.343 29.767C24.4123 29.714 24.4859 29.6668 24.563 29.626ZM15.258 22.065C15.258 21.531 15.269 21.085 15.284 21.075C15.296 21.059 17.197 21.051 19.501 21.055L23.696 21.067L23.707 22.046L23.715 23.029H20.59V31.905H18.38V23.029H15.258V22.065Z" fill="#F5A9B8"/>
</g>
<defs>
<filter id="filter0_d_54_93" x="0" y="0" width="49" height="49" filterUnits="userSpaceOnUse" color-interpolation-filters="sRGB">
<feFlood flood-opacity="0" result="BackgroundImageFix"/>
<feColorMatrix in="SourceAlpha" type="matrix" values="0 0 0 0 0 0 0 0 0 0 0 0 0 0 0 0 0 0 127 0" result="hardAlpha"/>
<feOffset dx="2" dy="2"/>
<feGaussianBlur stdDeviation="1"/>
<feComposite in2="hardAlpha" operator="out"/>
<feColorMatrix type="matrix" values="0 0 0 0 0 0 0 0 0 0 0 0 0 0 0 0 0 0 0.25 0"/>
<feBlend mode="normal" in2="BackgroundImageFix" result="effect1_dropShadow_54_93"/>
<feBlend mode="normal" in="SourceGraphic" in2="effect1_dropShadow_54_93" result="shape"/>
</filter>
<clipPath id="clip0_54_93">
<path d="M10 12C10 10.8954 10.8954 10 12 10H32C33.1046 10 34 10.8954 34 12V32C34 33.1046 33.1046 34 32 34H12C10.8954 34 10 33.1046 10 32V12Z" fill="white"/>
</clipPath>
</defs>
</svg>
